<?xml version="1.0" encoding="utf-8"?>
<!-- Generator: Adobe Illustrator 23.0.1, SVG Export Plug-In . SVG Version: 6.00 Build 0)  -->
<svg version="1.1" id="Layer_1" xmlns="http://www.w3.org/2000/svg" xmlns:xlink="http://www.w3.org/1999/xlink" x="0px" y="0px"
	 viewBox="0 0 144 144" style="enable-background:new 0 0 144 144;" xml:space="preserve">
<style type="text/css">
	.st0{fill:#365989;}
</style>
<g>
	<path class="st0" d="M88.78,44.22l4.86-7.23c-0.79-0.47-1.59-0.92-2.41-1.34l-3.92,8.57H88.78L88.78,44.22z"/>
	<path class="st0" d="M92.09,44.22l4.29-5.41c-0.75-0.54-1.51-1.05-2.29-1.54l-3.87,6.95H92.09L92.09,44.22z"/>
	<path class="st0" d="M47.05,48.66l-4.82-5.25c-0.65,0.65-1.27,1.33-1.87,2.03l6.69,5.24V48.66L47.05,48.66z"/>
	<path class="st0" d="M80.48,44.22l4.2-11.29c-0.87-0.28-1.76-0.52-2.66-0.74l-2.36,12.04H80.48L80.48,44.22z"/>
	<path class="st0" d="M83.05,44.22l4.72-10.17c-0.85-0.35-1.71-0.66-2.59-0.95l-3.1,11.12H83.05L83.05,44.22z"/>
	<path class="st0" d="M95.82,44.22l3.16-3.39c-0.7-0.59-1.42-1.16-2.16-1.71l-3.39,5.1H95.82L95.82,44.22z"/>
	<path class="st0" d="M85.8,44.22l4.97-8.81c-0.82-0.41-1.65-0.81-2.5-1.17l-3.65,9.98H85.8L85.8,44.22z"/>
	<path class="st0" d="M96.95,56.62l10.59-5.89c-0.49-0.78-1-1.54-1.54-2.29l-9.05,7.18V56.62L96.95,56.62z"/>
	<path class="st0" d="M78.05,44.22l3.46-12.16c-0.89-0.21-1.79-0.39-2.7-0.54l-1.47,12.7H78.05L78.05,44.22z"/>
	<path class="st0" d="M96.95,47.13l4.45-4.09c-0.65-0.65-1.33-1.27-2.03-1.87l-2.42,3.09V47.13L96.95,47.13z"/>
	<path class="st0" d="M96.95,53.81l8.75-5.81c-0.55-0.74-1.12-1.46-1.71-2.16l-7.04,6.54V53.81L96.95,53.81z"/>
	<path class="st0" d="M96.95,50.69l6.69-5.24c-0.6-0.69-1.22-1.37-1.87-2.03l-4.82,5.25V50.69L96.95,50.69z"/>
	<path class="st0" d="M96.95,61.53l13.62-4.98c-0.36-0.85-0.76-1.68-1.17-2.5l-12.45,7.02V61.53L96.95,61.53z"/>
	<path class="st0" d="M56.69,44.22l-3.92-8.57c-0.82,0.42-1.63,0.87-2.41,1.34l4.86,7.23H56.69L56.69,44.22z"/>
	<path class="st0" d="M53.78,44.22l-3.87-6.95c-0.78,0.49-1.54,1-2.29,1.54l4.29,5.41H53.78L53.78,44.22z"/>
	<path class="st0" d="M59.39,44.22l-3.65-9.98c-0.85,0.36-1.68,0.76-2.5,1.17l4.97,8.81H59.39L59.39,44.22z"/>
	<path class="st0" d="M61.92,44.22l-3.1-11.12c-0.88,0.29-1.74,0.61-2.59,0.95l4.72,10.17H61.92L61.92,44.22z"/>
	<path class="st0" d="M47.05,44.26l-2.42-3.09c-0.7,0.6-1.38,1.22-2.03,1.87l4.45,4.09V44.26L47.05,44.26z"/>
	<path class="st0" d="M50.58,44.22l-3.39-5.1c-0.74,0.55-1.46,1.12-2.16,1.71l3.15,3.39H50.58L50.58,44.22z"/>
	<path class="st0" d="M64.33,44.22l-2.36-12.04c-0.9,0.22-1.78,0.47-2.66,0.74l4.2,11.29H64.33L64.33,44.22z"/>
	<path class="st0" d="M75.71,44.22l2.58-12.78c-0.9-0.14-1.82-0.23-2.74-0.31l-0.48,13.1H75.71L75.71,44.22z"/>
	<path class="st0" d="M71.18,44.22l0.56-13.25c-0.93,0.01-1.84,0.05-2.76,0.11l1.59,13.13H71.18L71.18,44.22z"/>
	<path class="st0" d="M73.43,44.22l1.59-13.13c-0.91-0.07-1.83-0.11-2.75-0.11l0.56,13.25H73.43L73.43,44.22z"/>
	<path class="st0" d="M68.93,44.22l-0.48-13.1c-0.92,0.08-1.84,0.18-2.74,0.31l2.58,12.78H68.93L68.93,44.22z"/>
	<path class="st0" d="M66.66,44.22l-1.47-12.7c-0.91,0.15-1.82,0.33-2.71,0.54l3.46,12.16H66.66L66.66,44.22z"/>
	<path class="st0" d="M96.95,59.17l12.21-5.59c-0.43-0.82-0.87-1.63-1.34-2.41l-10.87,7.31V59.17L96.95,59.17z"/>
	<path class="st0" d="M96.95,71.84l16.89,0.71c0-0.93-0.05-1.84-0.11-2.76l-16.78,2.04V71.84L96.95,71.84z"/>
	<path class="st0" d="M96.95,69.88l16.74-0.61c-0.08-0.92-0.17-1.84-0.31-2.74l-16.43,3.32V69.88L96.95,69.88z"/>
	<path class="st0" d="M96.95,67.9l16.34-1.89c-0.15-0.91-0.33-1.81-0.54-2.71l-15.8,4.51V67.9L96.95,67.9z"/>
	<path class="st0" d="M96.95,65.86l15.68-3.07c-0.22-0.9-0.47-1.79-0.74-2.66l-14.94,5.56V65.86L96.95,65.86z"/>
	<path class="st0" d="M96.95,63.75l14.77-4.12c-0.29-0.88-0.61-1.74-0.95-2.59l-13.81,6.42V63.75L96.95,63.75z"/>
	<path class="st0" d="M80.74,106.9l1.28,6.55c0.9-0.22,1.78-0.47,2.66-0.75l-2.44-6.57C81.73,106.41,81.24,106.66,80.74,106.9
		L80.74,106.9z"/>
	<path class="st0" d="M96.95,75.79l16.43,3.32c0.14-0.9,0.23-1.82,0.31-2.74l-16.74-0.61V75.79L96.95,75.79z"/>
	<path class="st0" d="M78.11,108.1l0.69,6c0.91-0.15,1.81-0.33,2.7-0.54l-1.76-6.19C79.19,107.64,78.64,107.88,78.11,108.1
		L78.11,108.1z"/>
	<path class="st0" d="M83.24,105.58l1.94,6.96c0.88-0.29,1.74-0.61,2.59-0.95l-3.17-6.82C84.15,105.05,83.69,105.32,83.24,105.58
		L83.24,105.58z"/>
	<path class="st0" d="M85.6,104.12l2.66,7.27c0.85-0.36,1.68-0.75,2.5-1.17l-3.93-6.96C86.43,103.56,86.02,103.84,85.6,104.12
		L85.6,104.12z"/>
	<path class="st0" d="M75.35,109.18l0.19,5.33c0.92-0.08,1.84-0.17,2.74-0.31l-1.15-5.69C76.5,108.76,75.9,108.98,75.35,109.18
		L75.35,109.18z"/>
	<path class="st0" d="M96.95,77.82l15.8,4.51c0.21-0.89,0.39-1.79,0.54-2.71l-16.34-1.89V77.82L96.95,77.82z"/>
	<path class="st0" d="M61.75,106.16l-2.44,6.55c0.87,0.28,1.76,0.52,2.66,0.74l1.28-6.52C62.76,106.68,62.26,106.43,61.75,106.16
		L61.75,106.16z"/>
	<path class="st0" d="M66.86,108.52l-1.15,5.68c0.9,0.14,1.82,0.24,2.74,0.31l0.2-5.32C68.1,108.99,67.5,108.77,66.86,108.52
		L66.86,108.52z"/>
	<path class="st0" d="M96.95,73.8l16.78,2.03c0.07-0.91,0.11-1.83,0.11-2.76L96.95,73.8L96.95,73.8L96.95,73.8z"/>
	<path class="st0" d="M69.59,109.51l-0.61,5.04c0.91,0.06,1.83,0.11,2.76,0.11l-0.19-4.56C71.13,109.99,70.46,109.79,69.59,109.51
		L69.59,109.51z"/>
	<path class="st0" d="M72.46,110.1l-0.19,4.56c0.93-0.01,1.84-0.05,2.75-0.11l-0.61-5.05C73.54,109.79,72.87,109.99,72.46,110.1
		L72.46,110.1z"/>
	<path class="st0" d="M64.25,107.4l-1.76,6.17c0.89,0.21,1.79,0.39,2.71,0.54l0.69-5.99C65.36,107.9,64.81,107.66,64.25,107.4
		L64.25,107.4z"/>
	<path class="st0" d="M96.88,87.1l10.94,7.36c0.48-0.79,0.92-1.59,1.34-2.41l-12.24-5.6C96.91,86.66,96.9,86.89,96.88,87.1
		L96.88,87.1z"/>
	<path class="st0" d="M93.35,96.77l6.02,7.69c0.7-0.6,1.38-1.22,2.03-1.87L94,95.78C93.79,96.12,93.57,96.45,93.35,96.77
		L93.35,96.77z"/>
	<path class="st0" d="M94.71,94.53l7.06,7.69c0.65-0.65,1.27-1.33,1.87-2.03l-8.46-6.63C95.04,93.89,94.88,94.21,94.71,94.53
		L94.71,94.53z"/>
	<path class="st0" d="M96.95,84.56l12.45,7.02c0.41-0.82,0.81-1.65,1.17-2.5L96.95,84.1V84.56L96.95,84.56z"/>
	<path class="st0" d="M96.5,89.66l9.51,7.54c0.54-0.75,1.05-1.51,1.54-2.29l-10.89-6.06C96.61,89.12,96.55,89.39,96.5,89.66
		L96.5,89.66z"/>
	<path class="st0" d="M95.77,92.15l8.22,7.64c0.59-0.7,1.17-1.42,1.71-2.16l-9.62-6.39C95.98,91.54,95.88,91.85,95.77,92.15
		L95.77,92.15z"/>
	<path class="st0" d="M87.82,102.52l3.41,7.46c0.82-0.43,1.63-0.87,2.41-1.34l-4.72-7.03C88.56,101.92,88.19,102.23,87.82,102.52
		L87.82,102.52z"/>
	<path class="st0" d="M96.95,82.17l13.81,6.42c0.35-0.85,0.66-1.71,0.95-2.59l-14.77-4.12V82.17L96.95,82.17z"/>
	<path class="st0" d="M96.95,79.94l14.94,5.56c0.28-0.88,0.52-1.76,0.74-2.66l-15.68-3.07V79.94L96.95,79.94z"/>
	<path class="st0" d="M89.86,100.76l4.23,7.59c0.78-0.49,1.54-1,2.29-1.54l-5.55-7C90.51,100.14,90.19,100.46,89.86,100.76
		L89.86,100.76z"/>
	<path class="st0" d="M91.72,98.85l5.09,7.66c0.74-0.55,1.46-1.12,2.16-1.71l-6.44-6.93C92.27,98.21,92,98.53,91.72,98.85
		L91.72,98.85z"/>
	<path class="st0" d="M47.05,52.38l-7.04-6.54c-0.59,0.7-1.17,1.42-1.71,2.16l8.75,5.81V52.38L47.05,52.38z"/>
	<path class="st0" d="M47.05,71.83L30.27,69.8c-0.07,0.91-0.11,1.83-0.11,2.76l16.89-0.71V71.83L47.05,71.83z"/>
	<path class="st0" d="M47.34,88.85l-10.88,6.05c0.49,0.78,1,1.54,1.54,2.29l9.5-7.54C47.44,89.39,47.39,89.12,47.34,88.85
		L47.34,88.85z"/>
	<path class="st0" d="M47.05,77.74l-16.34,1.89c0.15,0.91,0.33,1.81,0.54,2.71l15.8-4.51V77.74L47.05,77.74z"/>
	<path class="st0" d="M47.08,86.45l-12.24,5.6c0.42,0.82,0.87,1.63,1.34,2.41l10.94-7.36C47.1,86.89,47.09,86.67,47.08,86.45
		L47.08,86.45z"/>
	<path class="st0" d="M47.05,63.46l-13.81-6.42c-0.35,0.85-0.66,1.71-0.95,2.59l14.77,4.12V63.46L47.05,63.46z"/>
	<path class="st0" d="M47.05,67.81l-15.8-4.5c-0.21,0.89-0.39,1.79-0.54,2.71l16.34,1.89V67.81L47.05,67.81z"/>
	<path class="st0" d="M47.92,91.24l-9.62,6.38c0.55,0.74,1.12,1.46,1.71,2.16l8.21-7.64C48.12,91.85,48.01,91.55,47.92,91.24
		L47.92,91.24z"/>
	<path class="st0" d="M47.05,79.77l-15.68,3.07c0.22,0.9,0.47,1.78,0.75,2.66l14.93-5.56V79.77L47.05,79.77z"/>
	<path class="st0" d="M47.05,69.85l-16.43-3.32c-0.13,0.9-0.23,1.82-0.31,2.74l16.74,0.61V69.85L47.05,69.85z"/>
	<path class="st0" d="M47.05,81.88L32.28,86c0.29,0.88,0.61,1.74,0.95,2.59l13.81-6.42V81.88L47.05,81.88z"/>
	<path class="st0" d="M47.05,84.1l-13.62,4.98c0.36,0.85,0.75,1.68,1.17,2.5l12.45-7.02V84.1L47.05,84.1z"/>
	<path class="st0" d="M47.05,61.07L34.6,54.05c-0.41,0.82-0.81,1.65-1.17,2.5l13.62,4.98V61.07L47.05,61.07z"/>
	<path class="st0" d="M47.05,65.69l-14.93-5.56c-0.28,0.87-0.53,1.76-0.75,2.66l15.68,3.07V65.69L47.05,65.69z"/>
	<path class="st0" d="M59.39,104.79l-3.16,6.8c0.85,0.35,1.71,0.66,2.59,0.95l1.93-6.93C60.3,105.34,59.84,105.07,59.39,104.79
		L59.39,104.79z"/>
	<path class="st0" d="M47.05,55.62L38,48.44c-0.54,0.74-1.05,1.51-1.54,2.29l10.59,5.89V55.62L47.05,55.62z"/>
	<path class="st0" d="M49.99,95.8l-7.39,6.8c0.65,0.65,1.33,1.26,2.03,1.87l6.01-7.67C50.42,96.46,50.2,96.13,49.99,95.8L49.99,95.8
		z"/>
	<path class="st0" d="M47.05,73.79l-16.89-0.71c0.01,0.93,0.05,1.85,0.11,2.76L47.05,73.79L47.05,73.79L47.05,73.79z"/>
	<path class="st0" d="M51.45,97.89l-6.43,6.91c0.7,0.59,1.42,1.17,2.16,1.71l5.08-7.64C51.99,98.55,51.72,98.22,51.45,97.89
		L51.45,97.89z"/>
	<path class="st0" d="M55.07,101.63l-4.71,7.01c0.79,0.48,1.59,0.92,2.41,1.34l3.4-7.44C55.8,102.25,55.43,101.95,55.07,101.63
		L55.07,101.63z"/>
	<path class="st0" d="M57.15,103.28l-3.91,6.94c0.82,0.41,1.65,0.81,2.5,1.17l2.65-7.24C57.97,103.87,57.56,103.58,57.15,103.28
		L57.15,103.28z"/>
	<path class="st0" d="M53.16,99.84l-5.54,6.98c0.75,0.54,1.51,1.05,2.29,1.54l4.21-7.57C53.79,100.48,53.47,100.16,53.16,99.84
		L53.16,99.84z"/>
	<path class="st0" d="M47.05,58.48l-10.87-7.31c-0.48,0.79-0.92,1.59-1.34,2.41l12.21,5.59V58.48L47.05,58.48z"/>
	<path class="st0" d="M47.05,75.75l-16.74,0.61c0.08,0.92,0.18,1.84,0.31,2.74l16.43-3.32V75.75L47.05,75.75z"/>
	<path class="st0" d="M48.8,93.57l-8.45,6.62c0.6,0.7,1.22,1.38,1.87,2.03l7.05-7.67C49.11,94.23,48.96,93.9,48.8,93.57L48.8,93.57z
		"/>
	<path class="st0" d="M55.64,89.9c0,0.8-0.04,2.23-0.04,2.38c0,0.15,0.1,0.26,0.1,0.26c0.25,0.36,0.66,0.32,0.92,0.35
		c0.87,0.07,1.44,0.14,2.28,0.15c-0.03,0.02-0.06,0.04-0.1,0.06c-0.36,0.2-0.52,0.6-0.58,0.96c-0.02,0.69-0.02,1.41-0.03,2.06
		l-0.04,3.18c-0.06-0.05-0.12-0.08-0.19-0.1c-0.39-0.08-0.8-0.07-1.07-0.07c-0.27,0-0.75-0.01-1.2-0.02l-0.1,0l0,0.1
		c0,0.55,0,2.07-0.04,2.57c-0.01,0.15,0.01,0.23,0.13,0.22c0.55-0.02,0.84-0.03,1.39-0.03c0.69,0,1.47,0.02,2.13,0.06l0.12,0.01
		l-0.01-0.12c-0.08-0.9-0.11-1.8-0.11-2.7c0-0.5,0.01-1,0.02-1.51l0.04-2.58c0.01-0.12,0.02-0.99,0.11-1.21
		c0.32-0.69,1.07-0.77,1.8-0.86c0.94-0.05,2.68-0.11,3.33,0.24c0.13,0.1,0.18,0.25,0.2,0.42c0.06,0.76,0.05,1.59,0.06,2.37
		l-0.03,2.48c0,0-0.15,2.76-0.25,3.38l-0.02,0.12c0,0,0.5-0.01,0.77-0.02c0.14,0,0.65-0.04,0.65-0.04l-0.01-0.11
		c-0.02-0.32-0.02-0.67-0.05-0.99c-0.03-1.32-0.01-4.18-0.01-5.11c0,0,0.02-2.95,0.02-3.2c0-0.45,0.04-0.84-0.09-1.37
		c-0.23-0.77-0.65-1.1-1.62-1.1c-0.23,0-3.97,0-3.97,0c-1.34,0-2.5-0.1-3.81-0.27c-0.13-0.01-0.34-0.1-0.35-0.38
		c0-0.22,0.01-0.3,0.01-0.47h-0.4C55.64,89.28,55.64,89.56,55.64,89.9"/>
	<path class="st0" d="M67.24,90.36c0,0.43-0.01,0.83-0.03,1.3c0.02,0.4,0.04,0.94,0.35,1.3l1.65,1.59c0.05,0.05,0.06,0.11,0.06,0.19
		c0,0.15-0.1,0.35-0.16,0.52c-0.87,2.22-1.38,4.45-2.12,6.64l-0.07,0.19c0,0,0.26-0.07,0.64-0.08c0.39-0.01,0.74,0.05,0.74,0.05
		l0.02-0.1c0.3-1.17,0.44-2.09,0.85-3.54c0.41-1.45,1.03-3.79,1.41-4.54c0.18-0.39,0.44-0.7,0.99-0.78c0.89-0.13,2.5-0.12,3.22,0
		c1.09,0.19,1.05,0.6,1.06,1.48c-0.01,1.49-0.06,4.62-0.05,4.65c-0.33-0.06-1.31-0.07-1.31-0.07s-2.64-0.07-2.94-0.07
		c-0.38,0-0.48-0.01-0.75,0.05l0.01,0.1c0.04,0.36,0.05,0.69,0.05,1.02c0,0.3-0.06,1.43-0.11,1.62l-0.03,0.15l0.14-0.01
		c0.65-0.04,1.24-0.05,1.88-0.05c1.34,0,2.68,0.05,4.03,0.09l0.1,0l0.01-0.1c0,0,0.03-0.54,0.03-0.98c0-0.15-0.07-2.35-0.07-2.76
		c0-0.82,0.05-5.75,0.06-6c0.01-0.94-0.02-1.68-0.72-1.86c0,0-0.44-0.1-0.68-0.14c-0.87-0.13-1.73-0.19-2.6-0.19
		c-0.64,0-1.24,0.04-1.9,0.11l-0.09,0.01v0.1v0.33c0,0.32,0,0.8-0.02,1.08c0,0.02,0,0.04,0,0.05c0,0.3-0.13,0.64-0.37,0.84
		c-0.02-0.2-0.12-0.39-0.25-0.53c-0.01-0.01-1.62-1.54-2.48-2.39c-0.1-0.14-0.18-0.31-0.18-0.48l0-0.17h-0.4L67.24,90.36
		L67.24,90.36z"/>
	<path class="st0" d="M87.88,100.26L87.88,100.26c0.03-0.54,0.02-1.02,0.03-1.54v-0.05c0-0.22-0.08-0.42-0.23-0.58l-1.85-1.7
		c-0.22-0.17-0.4-0.33-0.62-0.51c0.8-0.57,1.56-0.94,2.43-1.41c0.3-0.16,0.36-0.24,0.37-0.45c0.03-0.48,0-0.92,0-1.38V91.9
		c0-0.29,0.01-0.58,0.02-0.86c0-0.32,0.06-0.66,0.25-0.88l0.16-0.19l-0.25,0.02c-0.32,0.02-0.63,0.04-0.94,0.04
		c-0.55,0-1.1-0.02-1.65-0.06l-0.08-0.01l-0.02,0.07c-0.06,0.17-0.12,0.37-0.14,0.56c-0.04,0.38-0.04,0.73-0.04,1.08
		c0,0.24,0,0.54,0,0.79c0,0.16,0,0.33-0.01,0.5c-0.01,0.55-0.01,1.1-0.09,1.61c-0.06,0.31-0.3,0.57-0.61,0.7l-0.29-0.23l-1.89-1.67
		c-1.44-1.29-2.29-2.03-3.44-3.28c-0.24-0.26-0.57-0.53-0.58-0.86c0-0.07,0-0.15,0-0.22h-0.37v0.01c0,0.46-0.01,1.64-0.03,3.31
		c0.02,0.31,0.18,0.57,0.41,0.76l1.54,1.4c-0.31,0.15-0.57,0.39-0.79,0.69c-0.6,0.84-0.63,1.9-0.64,2.88
		c-0.01,0.34-0.01,0.96-0.01,1.5c0,1.13,0.01,2.4,0.01,2.4l0,0.11l0.1,0c0.5-0.02,1.03-0.03,1.56-0.03c0.73,0,1.36,0.02,2.03,0.07
		l0.12,0.01l-0.01-0.12c-0.03-0.45-0.04-0.94-0.04-1.41c0-0.46,0.02-0.92,0.06-1.36l0.04-0.27c-0.17,0.21-0.96,0.21-1.36,0.21
		c-0.21,0-0.33,0-0.56,0c0,0-0.65,0-0.93,0.24v-0.06c0-0.13,0.01-0.37,0.01-0.51c0-0.06,0-0.11,0-0.17l0.06-1.88
		c0.01-0.32,0.06-0.64,0.16-0.93c0.15-0.5,0.79-0.88,1.43-0.27c2.11,1.72,3.79,3.4,5.63,5.43c0.26,0.28,0.58,0.55,0.6,0.89
		c0,0.09,0,0.2,0,0.29h0.39C87.85,101.52,87.85,100.91,87.88,100.26"/>
	<path class="st0" d="M52.15,54.48c-0.02,0,0.01,0-0.03,0c-0.83-0.02-0.92-0.27-0.92-0.6v-2.41h0.59c1.06,0,1.81,0.52,1.81,1.62
		C53.58,54.07,52.92,54.47,52.15,54.48 M51.19,48.87c0-0.32,0.15-0.39,0.61-0.39c0.04,0-0.02,0,0,0c0.78-0.01,1.5,0.34,1.51,1.31
		c0,0.9-0.6,1.29-1.49,1.29h-0.63V48.87L51.19,48.87z M53.1,51.23v-0.04c0.99-0.13,1.49-0.76,1.49-1.5c0-1.08-0.78-1.61-2.41-1.6
		h-2.99v0.33c0.79,0.05,0.78,0.09,0.78,0.74v4.64c0,0.65,0.02,0.69-0.78,0.74v0.33h3.31c1.45-0.01,2.42-0.57,2.41-1.87
		C54.87,51.79,53.93,51.31,53.1,51.23"/>
	<path class="st0" d="M62.84,51.96l0.93-2.84h0.03l0.85,2.84H62.84L62.84,51.96z M57.98,51.32h-0.69v-2.43
		c0-0.33,0.22-0.4,0.72-0.41c0.04,0,0.02,0,0.05,0c0.62,0.02,1.28,0.37,1.28,1.44C59.33,50.85,58.85,51.32,57.98,51.32 M71.52,48.09
		v0.33l0.43,0.05c0.32,0.03,0.5,0.13,0.54,0.42c0.04,0.32,0.06,0.66,0.06,1.16v3.2l-0.03,0.03c-1.17-1.67-2.15-3.48-3.31-5.18h-2.13
		v0.33c0.82,0.05,0.81,0.08,0.81,0.74v3.76c0,0.5-0.03,0.85-0.06,1.16c-0.05,0.3-0.24,0.39-0.46,0.42
		c-0.19,0.02-0.53,0.13-0.73-0.44l-2.01-5.97h-1.01L62.6,51.1c-0.28,0.8-0.73,2.11-1.03,2.86c-0.08,0.21-0.15,0.37-0.26,0.46
		c-0.19,0.17-0.43,0.17-0.58-0.03c-0.14-0.18-0.29-0.71-0.37-1.19c-0.13-0.83-0.29-1.45-1.32-1.68v-0.03
		c0.91-0.1,1.59-0.73,1.59-1.65c0-0.99-0.57-1.76-2.3-1.76h-3.03v0.33c0.75,0.05,0.74,0.1,0.74,0.74v4.64
		c0,0.64,0.02,0.69-0.74,0.74v0.33h2.81v-0.33c-0.77-0.05-0.84-0.1-0.84-0.74v-2.09h0.6c0.55,0,0.85,0.2,1,0.51
		c0.18,0.39,0.22,1.26,0.42,1.83c0.18,0.53,0.55,0.82,1.13,0.82h2.37v-0.33l-0.42-0.04c-0.27-0.03-0.27-0.18-0.22-0.41
		c0.1-0.39,0.35-1.2,0.54-1.74h2.08l0.61,1.78c0.08,0.22,0.08,0.37-0.18,0.38l-0.36,0.03v0.33h4.5v-0.34l-0.33-0.04
		c-0.33-0.03-0.51-0.12-0.55-0.42c-0.04-0.3-0.06-0.66-0.06-1.16l-0.02-3.86h0.03c1.3,1.89,2.45,3.92,3.75,5.82h0.9v-4.83
		c0-0.5,0.04-0.84,0.08-1.2c0.04-0.22,0.21-0.36,0.42-0.38l0.3-0.04v-0.34H71.52L71.52,48.09z"/>
	<path class="st0" d="M77.17,54.48C77.12,54.48,77.2,54.48,77.17,54.48c-0.71-0.01-0.94-0.17-0.94-0.83v-4.65
		c0-0.39,0.08-0.51,0.95-0.52c0.06,0-0.03,0-0.02,0c1.79,0.06,2.33,1.4,2.33,3.03C79.49,53.85,78.29,54.45,77.17,54.48 M80.02,48.96
		c-0.55-0.55-1.44-0.85-2.59-0.86h-3.16v0.33c0.77,0.05,0.74,0.09,0.74,0.74v4.64c0,0.65,0.02,0.69-0.76,0.74v0.33h2.79
		c0.96,0,1.9-0.14,2.59-0.63c0.7-0.49,1.21-1.4,1.21-2.85C80.83,50.35,80.56,49.51,80.02,48.96"/>
	<path class="st0" d="M85.65,54.15c-0.21,0.19-0.61,0.32-1.24,0.33c-0.05,0,0.01,0-0.05,0c-0.5-0.01-0.85-0.07-0.98-0.17
		c-0.14-0.12-0.2-0.34-0.2-0.73v-2.04h0.94c0.76,0,1.03,0.08,1.14,0.63h0.3v-1.71h-0.28c-0.1,0.61-0.37,0.69-1.15,0.69h-0.94v-2.36
		c0-0.24,0.06-0.33,0.28-0.33h0.67c0.91,0,1.4,0.08,1.56,1.04h0.33v-1.43h-4.83v0.33c0.77,0.05,0.76,0.09,0.76,0.74v4.64
		c0,0.65,0.02,0.69-0.76,0.74v0.33h5.07l0.11-1.56h-0.34C85.96,53.66,85.82,53.97,85.65,54.15"/>
	<path class="st0" d="M89.06,53.8v-4.64c0-0.64-0.02-0.69,0.74-0.74v-0.33h-2.73v0.33c0.77,0.05,0.76,0.09,0.76,0.74v4.64
		c0,0.65,0.02,0.69-0.76,0.74v0.33h2.73v-0.33C89.05,54.49,89.06,54.44,89.06,53.8"/>
	<path class="st0" d="M94.5,48.37c-0.46-0.29-1.1-0.44-1.79-0.44c-1.54,0-2.24,0.88-2.24,2.04c0,1.17,0.98,1.65,2.05,1.98
		c0.66,0.21,1.3,0.5,1.3,1.38c0,0.76-0.38,1.31-1.19,1.31c-1.02,0-1.57-0.71-1.87-1.8h-0.32l0.06,1.61c0.5,0.39,1.36,0.58,2.03,0.58
		c1.81,0,2.41-1.03,2.41-2.13c0-1.48-1.33-1.88-2.05-2.11c-0.6-0.2-1.36-0.42-1.36-1.25c0-0.67,0.3-1.22,1.07-1.22
		c0.81,0,1.31,0.38,1.57,1.4h0.34V48.37L94.5,48.37z"/>
	<path class="st0" d="M72,117.17c-24.49,0-44.41-19.92-44.41-44.41c0-24.48,19.92-44.41,44.41-44.41s44.41,19.92,44.41,44.41
		C116.41,97.25,96.49,117.17,72,117.17L72,117.17z M72,29.54c-23.83,0-43.22,19.39-43.22,43.22c0,23.83,19.39,43.22,43.22,43.22
		c23.83,0,43.22-19.39,43.22-43.22C115.22,48.93,95.83,29.54,72,29.54L72,29.54z"/>
	<path class="st0" d="M72,131.52c-32.4,0-58.76-26.36-58.76-58.76C13.24,40.36,39.6,14,72,14c32.4,0,58.76,26.36,58.76,58.76
		C130.76,105.16,104.4,131.52,72,131.52L72,131.52z M72,15.99c-31.3,0-56.77,25.47-56.77,56.77c0,31.31,25.47,56.77,56.77,56.77
		s56.77-25.47,56.77-56.77C128.77,41.46,103.31,15.99,72,15.99L72,15.99z"/>
	<path class="st0" d="M43.69,32.8c-0.6,0.42-1.41,0.3-1.84-0.31c-0.42-0.6-0.29-1.4,0.32-1.84c0.6-0.42,1.42-0.29,1.84,0.31
		C44.43,31.56,44.28,32.38,43.69,32.8"/>
	<path class="st0" d="M53.49,29.92l0.61-0.3c0.37-0.18,0.37-0.33,0.22-0.73l-2.21-5.75l-0.5,0.19c-1.07,0.41-1.1,0.84-0.96,2.01
		l-0.37,0.14l-0.71-1.86l6.2-2.38l0.72,1.86l-0.37,0.14c-0.69-0.96-0.99-1.26-2.06-0.85l-0.49,0.19l2.21,5.75
		c0.15,0.39,0.26,0.51,0.65,0.39l0.65-0.19l0.14,0.36l-3.59,1.38L53.49,29.92L53.49,29.92z"/>
	<path class="st0" d="M61.99,23.5c1.11-0.22,1.43-0.9,1.24-1.89c-0.23-1.17-1-1.4-1.78-1.24c-0.65,0.13-0.72,0.27-0.65,0.61
		l0.52,2.65L61.99,23.5L61.99,23.5z M61.9,26.55c0.11,0.58,0.19,0.6,1.05,0.47l0.08,0.38l-3.37,0.66l-0.07-0.38
		c0.85-0.21,0.9-0.26,0.79-0.83l-1.08-5.46c-0.11-0.58-0.19-0.6-1.05-0.47l-0.07-0.38l3.67-0.72c1.99-0.39,2.79,0.33,2.99,1.39
		c0.19,0.99-0.45,1.84-1.49,2.21l0,0.02c1.21,0.06,1.56,0.73,1.89,1.62c0.2,0.54,0.43,0.93,0.8,1.13c0.16,0.08,0.36,0.14,0.59,0.11
		l0.07,0.38l-0.85,0.17c-0.98,0.19-1.5,0.01-1.87-0.7c-0.26-0.5-0.5-1.17-0.65-1.51c-0.28-0.61-0.71-0.77-1.31-0.66l-0.6,0.12
		L61.9,26.55L61.9,26.55z"/>
	<path class="st0" d="M74.52,23.86c0,0.64-0.12,1.24-0.34,1.63c-0.51,0.88-1.55,1.2-2.83,1.21c-1.35,0.02-2.38-0.27-2.89-1.12
		c-0.23-0.39-0.35-0.98-0.36-1.64l-0.05-3.98c-0.01-0.59-0.08-0.62-0.95-0.65l-0.01-0.39l3.44-0.05l0,0.39
		c-0.87,0.06-0.94,0.09-0.93,0.68l0.05,4c0.01,1.12,0.35,2.31,1.68,2.29c1.36-0.02,1.63-1.21,1.62-2.34l-0.05-4
		c-0.01-0.59-0.08-0.62-0.95-0.65l-0.01-0.39l3.44-0.05l0.01,0.39c-0.87,0.06-0.94,0.09-0.93,0.68L74.52,23.86L74.52,23.86z"/>
	<path class="st0" d="M77.78,26.46l0.68,0.06c0.41,0.03,0.49-0.1,0.56-0.52l1.01-6.08l-0.52-0.09c-1.13-0.19-1.37,0.17-1.85,1.25
		l-0.39-0.07l0.33-1.97l6.56,1.09l-0.32,1.97l-0.39-0.07c-0.1-1.17-0.22-1.59-1.35-1.77l-0.52-0.09l-1.01,6.08
		c-0.07,0.41-0.04,0.57,0.36,0.67l0.66,0.16l-0.06,0.38l-3.79-0.63L77.78,26.46L77.78,26.46z"/>
	<path class="st0" d="M87.66,25.25l-0.93,2.54c-0.2,0.55-0.15,0.61,0.65,0.95l-0.13,0.37l-3.23-1.18l0.13-0.36
		c0.83,0.26,0.91,0.25,1.11-0.3l1.91-5.22c0.2-0.55,0.15-0.61-0.65-0.95l0.13-0.36l3.23,1.18l-0.13,0.36
		c-0.83-0.26-0.91-0.25-1.11,0.3l-0.82,2.23l3.12,1.14l0.82-2.23c0.2-0.55,0.15-0.6-0.65-0.95l0.13-0.36l3.23,1.18l-0.13,0.36
		c-0.83-0.26-0.91-0.25-1.11,0.3l-1.91,5.22c-0.2,0.55-0.15,0.6,0.65,0.95l-0.13,0.36l-3.23-1.18l0.13-0.36
		c0.83,0.26,0.91,0.25,1.11-0.3l0.93-2.54L87.66,25.25L87.66,25.25z"/>
	<path class="st0" d="M101.04,32.83c-0.59-0.43-0.73-1.24-0.29-1.85c0.43-0.59,1.24-0.72,1.84-0.28c0.59,0.43,0.73,1.25,0.3,1.84
		C102.45,33.14,101.63,33.26,101.04,32.83"/>
	<path class="st0" d="M31.06,38.08c-0.49,0.72-0.5,0.8-0.03,1.15l4.45,3.35c0.47,0.35,0.54,0.32,1.1-0.35l0.31,0.23l-3.58,4.76
		l-1.57-1.18l0.24-0.33c1.05,0.45,1.49,0.5,2.22-0.46l0.56-0.75c0.2-0.27,0.18-0.37-0.07-0.57l-2.03-1.53l-0.75,1
		c-0.48,0.64-0.37,0.86,0.15,1.44l-0.24,0.32l-1.98-1.49l0.24-0.32c0.7,0.34,0.94,0.38,1.42-0.26l0.76-1l-1.92-1.45
		c-0.39-0.29-0.63-0.36-0.83-0.22c-0.2,0.16-0.41,0.41-0.71,0.82c-0.82,1.08-0.65,1.61,0.14,2.64l-0.24,0.32l-1.64-1.41l3.73-4.95
		L31.06,38.08L31.06,38.08z"/>
	<path class="st0" d="M28.11,47.98c0.42,0.06,2.89,0.42,3.25,0.46c0.54,0.07,0.66-0.01,0.95-0.53l0.34,0.18l-1.49,2.87l-0.34-0.18
		l0.21-0.52c0.1-0.24-0.01-0.32-0.26-0.36c-0.34-0.05-2.4-0.38-2.76-0.43l-2.82-0.42l-0.02,0.04c0.25,0.28,1.85,1.95,2.16,2.28
		c0.78,0.81,1.48,1.49,1.79,1.77c0.18,0.16,0.28,0.2,0.42-0.02l0.34-0.53l0.34,0.18l-1.19,2.29l-0.34-0.18
		c0.25-0.57,0.25-0.71-0.11-1.15c-0.34-0.41-1.13-1.27-2-2.23l-2.77-3.01l0.55-1.06L28.11,47.98L28.11,47.98z"/>
	<path class="st0" d="M21.86,53.62c-0.22,0.85-0.21,0.92,0.35,1.09l5.3,1.68c0.56,0.18,0.61,0.12,0.92-0.7l0.37,0.12l-1.8,5.68
		l-1.87-0.59l0.12-0.39c1.14,0.07,1.58-0.02,1.94-1.18l0.28-0.9c0.1-0.32,0.05-0.41-0.26-0.51l-2.42-0.76l-0.38,1.2
		c-0.24,0.77-0.06,0.94,0.62,1.31l-0.12,0.38l-2.37-0.75l0.12-0.38c0.77,0.09,1.01,0.04,1.25-0.72l0.38-1.2l-2.29-0.73
		c-0.46-0.15-0.71-0.13-0.86,0.07c-0.14,0.22-0.25,0.53-0.4,1.01c-0.41,1.29-0.07,1.73,1.01,2.44l-0.12,0.38l-2.02-0.78l1.87-5.91
		L21.86,53.62L21.86,53.62z"/>
	<path class="st0" d="M26.22,65.74c-2,1.04-3.99,2.1-6.01,3.17l-0.02,0.04l2.98,0.36c0.77,0.09,1.2,0.12,1.59,0.12
		c0.37,0.01,0.54-0.11,0.61-0.42l0.13-0.59l0.39,0.05l-0.32,2.68l-0.38-0.05l0-0.41c0-0.27-0.15-0.43-0.51-0.52
		c-0.37-0.09-0.8-0.15-1.58-0.25l-5.04-0.6l0.13-1.07c2.27-1.17,4.55-2.36,6.83-3.56l0.01-0.04l-3.74-0.45
		c-0.77-0.09-1.2-0.12-1.59-0.12c-0.37-0.01-0.54,0.11-0.61,0.41l-0.13,0.59l-0.38-0.05l0.32-2.68l0.38,0.05l0,0.41
		c0,0.27,0.15,0.43,0.51,0.52c0.37,0.09,0.8,0.15,1.58,0.25l3.99,0.48c0.58,0.07,0.63,0.01,0.77-0.85l0.39,0.05L26.22,65.74
		L26.22,65.74z"/>
	<path class="st0" d="M21.9,84.37c-0.64,0.1-1.25,0.07-1.67-0.09c-0.95-0.37-1.42-1.36-1.63-2.62c-0.22-1.33-0.09-2.39,0.68-3.02
		c0.35-0.29,0.92-0.49,1.56-0.6l3.92-0.65c0.58-0.1,0.6-0.17,0.5-1.03l0.38-0.06l0.56,3.39l-0.38,0.06
		c-0.19-0.85-0.23-0.91-0.81-0.82l-3.95,0.66c-1.11,0.18-2.23,0.69-2.01,2.01c0.22,1.34,1.44,1.43,2.55,1.25l3.95-0.65
		c0.58-0.1,0.6-0.17,0.5-1.03l0.38-0.06l0.56,3.39l-0.38,0.06c-0.19-0.85-0.23-0.91-0.81-0.82L21.9,84.37L21.9,84.37z"/>
	<path class="st0" d="M28.24,87.96c-1.29,1.85-2.55,3.72-3.84,5.61l0.01,0.04l2.81-1.07c0.72-0.28,1.12-0.45,1.47-0.63
		c0.33-0.16,0.43-0.34,0.35-0.65l-0.16-0.58l0.36-0.14l0.97,2.52l-0.36,0.14l-0.19-0.36c-0.13-0.24-0.33-0.31-0.69-0.22
		c-0.37,0.09-0.78,0.24-1.51,0.52l-4.74,1.81l-0.38-1c1.46-2.1,2.92-4.21,4.39-6.34l-0.02-0.04l-3.52,1.35
		c-0.72,0.28-1.12,0.45-1.46,0.63c-0.33,0.16-0.43,0.35-0.34,0.65l0.16,0.58l-0.36,0.14l-0.96-2.52l0.36-0.14l0.19,0.36
		c0.13,0.24,0.33,0.31,0.69,0.22c0.37-0.09,0.78-0.24,1.51-0.52l3.76-1.44c0.55-0.21,0.56-0.28,0.29-1.11l0.36-0.14L28.24,87.96
		L28.24,87.96z"/>
	<path class="st0" d="M25.26,99.03l0.4,0.55c0.24,0.33,0.39,0.3,0.75,0.08l5.26-3.21l-0.28-0.45c-0.6-0.98-1.02-0.93-2.15-0.58
		l-0.21-0.34l1.7-1.04l3.47,5.67l-1.7,1.04l-0.21-0.34c0.82-0.85,1.06-1.2,0.46-2.18l-0.28-0.45l-5.26,3.21
		c-0.36,0.22-0.45,0.34-0.27,0.71l0.31,0.61l-0.33,0.2l-2.01-3.28L25.26,99.03L25.26,99.03z"/>
	<path class="st0" d="M36.02,107.72c1.1-1.01,2.42-2.59,1.24-3.92c-1.18-1.32-2.9-0.18-4.03,0.8c-1.14,1.05-2.43,2.59-1.24,3.92
		C33.18,109.84,34.85,108.74,36.02,107.72 M30.53,106c0.07-0.93,0.6-1.85,1.54-2.7c0.94-0.84,1.92-1.26,2.85-1.23
		c0.93,0.01,1.84,0.48,2.68,1.42c0.85,0.95,1.21,1.89,1.12,2.83c-0.07,0.93-0.61,1.85-1.55,2.69c-0.94,0.84-1.91,1.27-2.85,1.24
		c-0.94-0.02-1.84-0.48-2.69-1.43C30.8,107.88,30.44,106.93,30.53,106"/>
	<path class="st0" d="M42.63,116.78c-0.33,0.48-0.3,0.55,0.39,1.08l-0.22,0.32l-2.83-1.95l0.22-0.32c0.74,0.46,0.82,0.47,1.15-0.01
		l3.16-4.58c0.33-0.48,0.3-0.55-0.39-1.08l0.22-0.32l2.83,1.95l-0.22,0.32c-0.74-0.46-0.82-0.47-1.15,0.01L42.63,116.78
		L42.63,116.78z"/>
	<path class="st0" d="M46.42,119.88l0.63,0.25c0.38,0.15,0.49,0.05,0.68-0.33l2.75-5.51L50,114.05c-1.02-0.51-1.36-0.24-2.13,0.65
		l-0.35-0.18l0.89-1.79l5.95,2.97l-0.89,1.78l-0.35-0.17c0.25-1.15,0.26-1.58-0.76-2.09l-0.48-0.24l-2.75,5.52
		c-0.19,0.38-0.2,0.53,0.15,0.74l0.58,0.35l-0.17,0.35l-3.44-1.71L46.42,119.88L46.42,119.88z"/>
	<path class="st0" d="M59.17,119.41c0.11-1.26-0.35-1.94-1.08-2.17c-0.76-0.24-1.39,0.09-1.61,0.78c-0.24,0.77,0.44,1.4,1.05,1.9
		l0.28,0.23c0.89,0.72,1.57,1.59,1.18,2.8c-0.36,1.14-1.39,2.03-3.47,1.39c-0.72-0.23-1.67-0.71-2.05-1.35l0.43-1.86l0.38,0.12
		c-0.03,1.38,0.5,2.38,1.38,2.65c0.81,0.25,1.47-0.01,1.73-0.84c0.24-0.76-0.16-1.37-0.81-1.9l-0.21-0.17
		c-0.9-0.71-1.79-1.66-1.41-2.88c0.38-1.22,1.52-1.85,3.29-1.29c0.66,0.21,1.4,0.6,1.8,1.08l-0.52,1.65L59.17,119.41L59.17,119.41z"
		/>
	<path class="st0" d="M68.07,125.52c-0.05,0.59,0.01,0.62,0.88,0.74l-0.04,0.39l-3.42-0.3l0.03-0.38c0.87,0.03,0.94,0,0.99-0.58
		l0.49-5.54c0.05-0.59-0.01-0.62-0.88-0.75l0.03-0.39l3.42,0.3l-0.03,0.39c-0.87-0.03-0.94,0-0.99,0.58L68.07,125.52L68.07,125.52z"
		/>
	<path class="st0" d="M73.34,119.05c1.37,1.78,2.78,3.55,4.19,5.35l0.04,0.01l-0.18-3c-0.05-0.77-0.09-1.21-0.16-1.59
		c-0.06-0.36-0.2-0.51-0.52-0.52l-0.6-0.02l-0.02-0.39l2.7-0.16l0.02,0.39l-0.4,0.07c-0.27,0.05-0.4,0.22-0.42,0.59
		c-0.02,0.38-0.01,0.81,0.04,1.6l0.3,5.07l-1.07,0.07c-1.56-2.03-3.13-4.06-4.72-6.09l-0.04,0l0.22,3.76
		c0.04,0.77,0.09,1.21,0.16,1.59c0.05,0.36,0.2,0.51,0.52,0.52l0.6,0.02l0.02,0.39l-2.7,0.16l-0.02-0.39l0.4-0.07
		c0.27-0.05,0.4-0.22,0.42-0.59c0.02-0.38,0.01-0.81-0.04-1.6l-0.24-4.02c-0.04-0.59-0.1-0.61-0.98-0.61l-0.02-0.39L73.34,119.05
		L73.34,119.05z"/>
	<path class="st0" d="M82.29,117.92c1.69,1.48,3.42,2.95,5.15,4.43l0.05,0l-0.76-2.91c-0.2-0.75-0.33-1.16-0.47-1.53
		c-0.12-0.35-0.29-0.46-0.61-0.41l-0.59,0.1l-0.1-0.38l2.61-0.68l0.1,0.38l-0.38,0.14c-0.25,0.1-0.34,0.3-0.3,0.66
		c0.05,0.38,0.15,0.8,0.35,1.56l1.28,4.91l-1.04,0.27c-1.92-1.69-3.86-3.37-5.81-5.06l-0.04,0.01l0.95,3.65
		c0.2,0.75,0.33,1.16,0.47,1.53c0.13,0.34,0.3,0.46,0.61,0.41l0.59-0.1l0.1,0.38l-2.61,0.68l-0.1-0.38l0.38-0.15
		c0.25-0.1,0.34-0.29,0.29-0.66c-0.05-0.38-0.15-0.8-0.35-1.56l-1.01-3.89c-0.15-0.57-0.22-0.58-1.07-0.41l-0.1-0.38L82.29,117.92
		L82.29,117.92z"/>
	<path class="st0" d="M91.57,122.74c0.77-0.4,0.82-0.46,0.57-1l-2.33-5.05c-0.25-0.53-0.32-0.54-1.13-0.21l-0.16-0.35l5.41-2.49
		l0.82,1.78l-0.37,0.17c-0.71-0.89-1.08-1.15-2.18-0.64l-0.85,0.39c-0.31,0.14-0.34,0.24-0.2,0.53l1.06,2.3l1.14-0.53
		c0.73-0.34,0.74-0.59,0.55-1.34l0.36-0.16l1.04,2.25l-0.36,0.17c-0.45-0.63-0.65-0.77-1.37-0.44l-1.14,0.53l1.01,2.18
		c0.2,0.44,0.38,0.61,0.63,0.59c0.25-0.04,0.56-0.17,1.02-0.38c1.23-0.57,1.33-1.11,1.13-2.39l0.36-0.17l0.78,2.02l-5.63,2.6
		L91.57,122.74L91.57,122.74z"/>
	<path class="st0" d="M100.06,114.07c0.93-0.64,0.96-1.4,0.39-2.23c-0.68-0.99-1.47-0.88-2.12-0.44c-0.55,0.38-0.56,0.53-0.35,0.82
		l1.53,2.23L100.06,114.07L100.06,114.07z M101.19,116.9c0.33,0.48,0.41,0.47,1.15,0.02l0.22,0.32l-2.83,1.95l-0.22-0.32
		c0.69-0.53,0.73-0.59,0.4-1.08l-3.15-4.59c-0.33-0.48-0.41-0.47-1.15-0.01l-0.22-0.32l3.08-2.12c1.67-1.15,2.69-0.8,3.3,0.09
		c0.57,0.83,0.32,1.86-0.49,2.62l0.01,0.02c1.13-0.43,1.72,0.05,2.37,0.74c0.39,0.41,0.76,0.69,1.18,0.72
		c0.18,0.01,0.39-0.01,0.58-0.13l0.22,0.32l-0.72,0.49c-0.82,0.56-1.37,0.6-1.99,0.09c-0.44-0.36-0.92-0.88-1.2-1.13
		c-0.5-0.45-0.96-0.43-1.46-0.09l-0.5,0.35L101.19,116.9L101.19,116.9z"/>
	<path class="st0" d="M107.09,113.53l0.25-0.32c0.16-0.22,0.14-0.43-0.09-0.72c-0.24-0.29-0.54-0.6-1.11-1.15l-2.89-2.8
		c-0.42-0.41-0.49-0.38-1.13,0.21l-0.28-0.27l1.91-1.97l5.36,2.14l0.02-0.02l-2.32-5.28l1.85-1.91l0.28,0.27
		c-0.57,0.66-0.6,0.73-0.17,1.14l4,3.87c0.42,0.41,0.49,0.38,1.13-0.21l0.28,0.27l-2.35,2.43l-0.28-0.27
		c0.57-0.66,0.6-0.73,0.17-1.14l-3.99-3.86l-0.02,0.02l2.84,6.32l-0.38,0.4l-6.43-2.6l-0.02,0.02l2.89,2.79
		c0.56,0.54,0.88,0.82,1.19,1.06c0.29,0.23,0.49,0.24,0.74,0.04l0.46-0.39l0.28,0.27l-1.88,1.94L107.09,113.53L107.09,113.53z"/>
	<path class="st0" d="M115.7,97.42c-1.28-0.77-3.17-1.6-4.11-0.09c-0.94,1.51,0.64,2.83,1.9,3.64c1.33,0.8,3.17,1.6,4.11,0.09
		C118.53,99.56,117,98.26,115.7,97.42 M115.59,103.18c-0.91,0.19-1.95-0.06-3.02-0.72c-1.07-0.67-1.75-1.49-1.98-2.39
		c-0.25-0.9-0.06-1.9,0.61-2.97c0.67-1.08,1.48-1.69,2.4-1.87c0.91-0.19,1.94,0.07,3.02,0.73c1.07,0.67,1.76,1.48,1.99,2.38
		c0.24,0.91,0.06,1.9-0.62,2.98C117.32,102.39,116.51,103,115.59,103.18"/>
	<path class="st0" d="M117.49,89.24c-1.25-0.21-1.97,0.19-2.25,0.9c-0.3,0.75-0.03,1.39,0.65,1.67c0.75,0.3,1.43-0.32,1.98-0.9
		l0.25-0.26c0.79-0.83,1.7-1.43,2.88-0.95c1.11,0.45,1.91,1.54,1.1,3.57c-0.28,0.7-0.84,1.61-1.51,1.94l-1.82-0.58l0.15-0.36
		c1.38,0.14,2.41-0.3,2.75-1.17c0.32-0.79,0.11-1.47-0.7-1.8c-0.74-0.3-1.38,0.05-1.96,0.66l-0.18,0.19
		c-0.78,0.84-1.79,1.65-2.99,1.17c-1.18-0.48-1.72-1.66-1.02-3.38c0.26-0.64,0.71-1.35,1.21-1.7l1.6,0.65L117.49,89.24L117.49,89.24
		z"/>
	<path class="st0" d="M123.79,86.63l0.1-0.67c0.06-0.4-0.07-0.49-0.48-0.59L117.4,84l-0.12,0.52c-0.26,1.11,0.08,1.38,1.13,1.92
		l-0.09,0.39l-1.94-0.45l1.48-6.48l1.94,0.45l-0.09,0.39c-1.18,0.03-1.6,0.12-1.85,1.23l-0.12,0.52l6.01,1.37
		c0.41,0.09,0.56,0.07,0.69-0.32l0.2-0.65l0.38,0.09l-0.86,3.75L123.79,86.63L123.79,86.63z"/>
	<path class="st0" d="M121.95,72.14c0.42-0.01,0.46-0.15,0.45-0.69c-0.03-1.11-0.85-1.61-1.89-1.58c-1.25,0.03-1.79,0.71-1.77,1.62
		c0.02,0.63,0.12,0.73,0.43,0.72L121.95,72.14L121.95,72.14z M125.63,74.54c-0.07-0.87-0.1-0.94-0.69-0.92l-5.56,0.15
		c-0.59,0.02-0.62,0.08-0.64,0.96l-0.39,0.01l-0.09-3.34c-0.02-0.87,0.06-1.62,0.39-2.19c0.3-0.53,0.88-0.95,1.77-0.97
		c1.01-0.03,1.62,0.51,1.98,1.16c0.27,0.49,0.43,1.21,0.45,2.09l0.02,0.64l2.03-0.05c0.59-0.02,0.62-0.09,0.64-1.14l0.39-0.01
		l0.09,3.61L125.63,74.54L125.63,74.54z"/>
	<path class="st0" d="M121.8,63.41l-2.77,1.47l0.01,0.03c0.37,0.06,2.69,0.39,3.11,0.45L121.8,63.41L121.8,63.41z M125.44,67.3
		c-0.14-0.64-0.25-0.74-0.8-0.85c-0.84-0.17-2.09-0.37-3.22-0.56l-3.73-0.63l-0.21-1.19l6.21-3.42c0.47-0.25,0.49-0.4,0.41-1
		l0.38-0.07l0.58,3.27l-0.38,0.07l-0.15-0.58c-0.07-0.28-0.22-0.29-0.48-0.16l-1.8,0.98l0.4,2.28c0.74,0.09,1.4,0.2,2.03,0.24
		c0.28,0.02,0.4-0.01,0.38-0.3l-0.07-0.64l0.38-0.07l0.45,2.55L125.44,67.3L125.44,67.3z"/>
	<path class="st0" d="M119.24,56.55c-0.37-1.07-1.1-1.29-2.05-0.96c-1.13,0.39-1.24,1.19-0.98,1.93c0.22,0.63,0.36,0.67,0.7,0.56
		l2.55-0.89L119.24,56.55L119.24,56.55z M122.27,56.22c0.55-0.19,0.57-0.27,0.32-1.11l0.37-0.13l1.13,3.24l-0.37,0.13
		c-0.33-0.81-0.38-0.86-0.93-0.67l-5.26,1.83c-0.55,0.19-0.57,0.27-0.32,1.1l-0.37,0.13l-1.23-3.53c-0.67-1.91-0.06-2.8,0.95-3.16
		c0.95-0.33,1.88,0.18,2.4,1.16l0.02-0.01c-0.11-1.21,0.5-1.65,1.34-2.09c0.5-0.27,0.86-0.55,1.01-0.95
		c0.06-0.18,0.09-0.38,0.03-0.6l0.37-0.13l0.29,0.82c0.33,0.94,0.22,1.48-0.44,1.95c-0.46,0.33-1.09,0.65-1.4,0.86
		c-0.57,0.37-0.67,0.81-0.47,1.38l0.2,0.58L122.27,56.22L122.27,56.22z"/>
	<path class="st0" d="M119.91,48.7l-0.38-0.57c-0.23-0.34-0.38-0.32-0.75-0.12l-5.4,2.96l0.26,0.47c0.55,1,0.98,0.97,2.12,0.68
		l0.19,0.35l-1.75,0.96l-3.2-5.83l1.75-0.96l0.19,0.35c-0.86,0.81-1.11,1.15-0.56,2.15l0.26,0.47l5.4-2.96
		c0.37-0.2,0.47-0.32,0.3-0.7l-0.28-0.62l0.34-0.19l1.85,3.37L119.91,48.7L119.91,48.7z"/>
	<path class="st0" d="M109.17,41.81c-0.82,0.97-0.83,1.8-0.35,2.4c0.49,0.63,1.19,0.72,1.77,0.28c0.64-0.49,0.44-1.4,0.22-2.16
		l-0.1-0.35c-0.32-1.1-0.38-2.19,0.63-2.97c0.95-0.73,2.29-0.88,3.64,0.84c0.46,0.6,0.96,1.54,0.91,2.28l-1.42,1.28l-0.24-0.31
		c0.82-1.12,0.95-2.23,0.38-2.97c-0.52-0.67-1.22-0.83-1.9-0.3c-0.63,0.49-0.65,1.22-0.42,2.03l0.07,0.26
		c0.33,1.1,0.52,2.38-0.49,3.17c-1.01,0.78-2.3,0.65-3.43-0.81c-0.42-0.54-0.8-1.29-0.86-1.91l1.37-1.06L109.17,41.81L109.17,41.81z
		"/>
	<path class="st0" d="M48.86,57.01V89.3h0.17c0.47-3.58,3.48-6.35,7.12-6.35c3.25,0,6,2.2,6.88,5.23c0.53-4.58,4.35-8.13,8.98-8.13
		c4.63,0,8.45,3.55,8.97,8.13c0.89-3.02,3.63-5.23,6.89-5.23c3.64,0,6.65,2.77,7.12,6.35h0.17V57.01H48.86L48.86,57.01z
		 M52.67,65.85c-0.01-2.31,1.74-4.17,3.58-4.24c0,0,0,0.13,0,0.13c-0.51,0.74-1.23,1.21-1.2,4.17c0.02,2.3-0.49,3.22-3.11,4.93
		l-0.07-0.15c0.45-0.39,0.81-1.26,0.81-2.07L52.67,65.85L52.67,65.85z M57.45,81.18c-3.31-0.53-5.39-2.66-5.71-5.75
		c-0.27-2.59,1.34-4.2,2.3-4.98c0.89-0.72,1.94-1.45,2.04-3.61c0.03-0.68,0.01-1.22,0.01-1.72c0.03-2.18,1.02-3.1,2.11-3.96
		c0.59-0.46,1.06-0.68,1.06-0.68l0.07,0.15c-0.44,0.45-0.84,1.12-1.07,1.93c-0.33,1.17-0.12,2.29,0.4,3.36
		c0.28,0.59,0.6,1.22,0.8,1.96c0.46,1.73,0.2,3.52-1,5.11c-1.44,1.91-2.8,2.27-2.8,4.62c0,1.6,0.77,2.72,1.82,3.43L57.45,81.18
		L57.45,81.18z M59.35,77.46c-1.43,0.9-1.43,2.19-0.76,2.95l0,0.11c-2.18-0.67-2.6-3.53-0.97-5.3c1.37-1.49,2.65-1.99,2.82-5.2
		l0.08-0.03c0.6,1.19,0.93,2.33,0.9,3.49C61.37,75.4,60.57,76.7,59.35,77.46L59.35,77.46z M68.07,62.88
		c-0.01-2.31,1.74-4.17,3.58-4.24c0,0,0,0.13,0,0.13c-0.51,0.74-1.23,1.21-1.2,4.17c0.03,2.29-0.49,3.21-3.11,4.92l-0.07-0.15
		c0.45-0.39,0.81-1.26,0.81-2.07L68.07,62.88L68.07,62.88z M72.85,78.21c-3.31-0.53-5.39-2.67-5.72-5.75
		c-0.27-2.59,1.34-4.2,2.3-4.98c0.89-0.72,1.94-1.45,2.04-3.61c0.03-0.67,0.01-1.22,0.01-1.72c0.03-2.18,1.02-3.1,2.1-3.96
		c0.59-0.46,1.07-0.69,1.06-0.69l0.07,0.15c-0.44,0.45-0.84,1.13-1.07,1.93c-0.33,1.17-0.12,2.29,0.4,3.36
		c0.28,0.59,0.6,1.22,0.8,1.96c0.46,1.73,0.21,3.52-1,5.11c-1.44,1.91-2.8,2.27-2.8,4.61c0,1.6,0.77,2.72,1.82,3.43L72.85,78.21
		L72.85,78.21z M74.75,74.49c-1.43,0.9-1.43,2.19-0.76,2.94l0,0.11c-2.18-0.67-2.6-3.53-0.97-5.3c1.37-1.49,2.65-1.99,2.83-5.2
		l0.08-0.03c0.6,1.19,0.93,2.33,0.9,3.49C76.77,72.43,75.97,73.73,74.75,74.49L74.75,74.49z M83.47,65.85
		c-0.01-2.31,1.74-4.17,3.59-4.24c0,0,0,0.13,0,0.13c-0.51,0.74-1.23,1.21-1.2,4.17c0.03,2.3-0.49,3.22-3.11,4.93l-0.07-0.15
		c0.45-0.39,0.81-1.26,0.81-2.07L83.47,65.85L83.47,65.85z M88.25,81.18c-3.31-0.53-5.39-2.66-5.72-5.75
		c-0.27-2.59,1.34-4.2,2.3-4.98c0.89-0.72,1.94-1.45,2.04-3.61c0.03-0.68,0.01-1.22,0.01-1.72c0.03-2.18,1.02-3.1,2.11-3.96
		c0.59-0.46,1.06-0.68,1.06-0.68l0.07,0.15c-0.44,0.45-0.84,1.12-1.06,1.93c-0.33,1.17-0.12,2.29,0.4,3.36
		c0.28,0.59,0.6,1.22,0.8,1.96c0.46,1.73,0.21,3.52-1,5.11c-1.44,1.91-2.8,2.27-2.8,4.62c0,1.6,0.77,2.72,1.82,3.43L88.25,81.18
		L88.25,81.18z M90.15,77.46c-1.44,0.9-1.43,2.19-0.76,2.95l0,0.11c-2.18-0.67-2.6-3.53-0.97-5.3c1.37-1.49,2.65-1.99,2.82-5.2
		l0.08-0.03c0.6,1.19,0.93,2.33,0.9,3.49C92.17,75.4,91.37,76.7,90.15,77.46L90.15,77.46z"/>
</g>
</svg>
